<svg width="1592" height="151" viewBox="0 0 1592 151" fill="none" xmlns="http://www.w3.org/2000/svg">
<path d="M1559.17 150H1510.83L1478 114.719V0H1496.24V107.891L1518.81 131.791H1551.19L1573.76 107.891V0H1592V114.719L1559.17 150Z" fill="black"/>
<path d="M1451 27.2727V63.6364L1424.32 90.9091H1407L1450.32 136.591V150H1436.64L1381.46 90.9091H1355.24V150H1337V0H1424.32L1451 27.2727ZM1355.24 18.1818V72.7273H1416.57L1432.76 56.1364V35L1416.57 18.1818H1355.24Z" fill="black"/>
<path d="M1257 150H1145V0H1163.29V132.727H1257V150Z" fill="black"/>
<path d="M1118 0V17.2727H1027.36V63.6364H1104.23V80.9091H1027.36V132.727H1118V150H1009V0H1118Z" fill="black"/>
<path d="M983 150H869V132.5H916.424V17.5H870.14V0H981.86V17.5H934.664V132.5H983V150Z" fill="black"/>
<path d="M842 27.2727V63.6364L815.324 90.9091H797.996L841.316 136.591V150H827.636L772.46 90.9091H746.24V150H728V0H815.324L842 27.2727ZM746.24 18.1818V72.7273H807.572L823.76 56.1364V35L807.572 18.1818H746.24Z" fill="black"/>
<path d="M614.717 150H596V0H614.717L682.054 111.136H682.739V0H701V150H681.826L615.859 36.1364H614.717V150Z" fill="black"/>
<path d="M499.988 0H521.012L569 135.909V150H554.146L541.578 113.182H479.422L466.854 150H452V135.909L499.988 0ZM509.814 23.1818L485.363 95.2273H535.637L511.186 23.1818H509.814Z" fill="black"/>
<path d="M406.739 63.4091V0H425V150H406.739V80.9091H338.717V150H320V0H338.717V63.4091H406.739Z" fill="black"/>
<path d="M1312 150.48H1286V123.48H1312V150.48Z" fill="black"/>
<path d="M50 100L50 125L25 150L-2.18557e-06 150L0 100L50 100Z" fill="black"/>
<path d="M50 100L25 100L2.18557e-06 75L4.37114e-06 50L50 50L50 100Z" fill="black"/>
<path d="M50 0L50 25L25 50L-2.18557e-06 50L0 -2.18557e-06L50 0Z" fill="black"/>
<path d="M100 50L100 75L75 100L50 100L50 50L100 50Z" fill="black"/>
<path d="M100 50L100 25L125 2.98122e-07L150 5.96244e-07L150 50L100 50Z" fill="black"/>
<path d="M100 50H125L150 75V100H100V50Z" fill="black"/>
<path d="M100 150L100 125L125 100L150 100L150 150L100 150Z" fill="black"/>
<path d="M210 62.5L222.5 50H235H247.5L260 62.5V75V87.5L247.5 100H235H222.5L210 87.5V75L210 62.5Z" fill="black"/>
</svg>
