<svg width="388" height="125" viewBox="0 0 388 125" fill="none" xmlns="http://www.w3.org/2000/svg">
<path d="M218.297 36.144V16.88H224.889V62H218.297V42.224H195.513V62H188.921V16.88H195.513V36.144H218.297Z" fill="#FF9900"/>
<path d="M247.15 28.272C251.246 28.272 254.467 29.616 256.814 32.304C259.203 34.9493 260.398 38.6613 260.398 43.44V62H254.493V57C253.427 58.664 251.997 59.3667 250.205 60.476C248.413 61.5853 246.011 62 243.493 62C241.275 62 239.539 61.692 237.789 60.796C236.04 59.9 234.675 58.6627 233.693 57.084C232.712 55.4627 232.174 54.1493 232.174 52.144C232.174 49.0293 233.411 46.5333 235.886 44.656C238.361 42.7787 241.945 41.84 246.638 41.84H254.126C253.955 39.2373 253.23 37.232 251.95 35.824C250.67 34.3733 248.963 33.648 246.83 33.648C245.209 33.648 243.779 34.032 242.542 34.8C241.305 35.568 240.366 36.5707 239.726 37.808L233.902 36.848C234.755 34.2027 236.398 32.112 238.83 30.576C241.262 29.04 244.035 28.272 247.15 28.272ZM245.038 57.328C247.726 57.328 249.902 56.4533 251.566 54.704C253.273 52.912 254.126 50.4587 254.126 47.344V46.96H246.83C241.283 46.96 238.51 48.624 238.51 51.952C238.51 53.5733 239.107 54.8747 240.302 55.856C241.497 56.8373 243.075 57.328 245.038 57.328Z" fill="#FF9900"/>
<path d="M268.993 62V28L275.993 28.088V32.5C277.103 30.708 278.83 29.3649 279.83 29C280.83 28.6351 281.493 28 285.493 28C289.493 28 290.616 28.8053 292.493 30C294.413 31.152 295.764 32.9093 296.83 35C297.897 37.048 297.973 38.5 297.973 41.904V62L291.993 62.02V42.5C291.993 39.9827 290.976 37.9147 289.525 36.336C288.117 34.7573 286.283 33.968 284.021 33.968C281.675 33.968 279.712 34.7787 278.133 36.4C276.555 37.9787 275.993 40.0053 275.993 42.48V62H268.993Z" fill="#FF9900"/>
<path d="M305.406 62V28.912H311.294V31C313.993 29 316.993 29 318.993 29C320.993 29 323.493 30 324.993 31V37C324.993 37 323.184 35 318.993 35C314.803 35 312.493 36.185 311.678 37C311.678 38.431 311.678 38 311.678 42.288V62H305.406Z" fill="#FF9900"/>
<path d="M333.993 62H327.993V28.912H333.993V62Z" fill="#FF9900"/>
<path d="M374.844 45.232C374.844 46.0853 374.823 46.7467 374.78 47.216H347.452C347.793 50.16 348.945 52.5067 350.908 54.256C352.871 56.0053 355.367 56.88 358.396 56.88C360.487 56.88 362.343 56.4747 363.964 55.664C365.628 54.8107 366.887 53.7013 367.74 52.336L373.628 53.296C372.348 56.2827 370.279 58.5867 367.42 60.208C364.604 61.8293 361.468 62.64 358.012 62.64C354.727 62.64 351.783 61.9147 349.18 60.464C346.577 58.9707 344.551 56.9227 343.1 54.32C341.649 51.7173 340.924 48.7733 340.924 45.488C340.924 42.16 341.649 39.1947 343.1 36.592C344.551 33.9893 346.556 31.9627 349.116 30.512C351.676 29.0187 354.599 28.272 357.884 28.272C361.127 28.272 364.028 29.0187 366.588 30.512C369.191 31.9627 371.217 33.9893 372.668 36.592C374.119 39.152 374.844 42.032 374.844 45.232ZM357.884 33.84C355.367 33.84 353.191 34.5867 351.356 36.08C349.564 37.5733 348.369 39.5787 347.772 42.096H367.996C367.441 39.6213 366.247 37.6373 364.412 36.144C362.62 34.608 360.444 33.84 357.884 33.84Z" fill="#FF9900"/>
<path d="M387.498 62H381.226V16.88H387.498V62Z" fill="#FF9900"/>
<path d="M191.524 88.7483H188.993V71H191.524V88.7483Z" fill="#FF9900"/>
<path d="M202.397 88.7483H199.867V73.3916H193.848V71H208.441V73.3916H202.397V88.7483Z" fill="#FF9900"/>
<path d="M216.293 82.8573H208.677V80.5161H216.293V82.8573Z" fill="#FF9900"/>
<path d="M224.433 88.7483H222.025V77.9986H217.627V75.7329H228.83V77.9986H224.433V88.7483Z" fill="#FF9900"/>
<path d="M242.728 82.1524C242.728 82.4881 242.72 82.7483 242.704 82.9329H232.213C232.344 84.0909 232.786 85.014 233.54 85.7021C234.293 86.3902 235.251 86.7343 236.414 86.7343C237.217 86.7343 237.929 86.5748 238.551 86.2559C239.19 85.9203 239.673 85.4839 240.001 84.9469L242.261 85.3245C241.77 86.4993 240.976 87.4056 239.878 88.0434C238.797 88.6811 237.593 89 236.267 89C235.005 89 233.875 88.7147 232.876 88.1441C231.877 87.5566 231.099 86.751 230.542 85.7273C229.985 84.7035 229.707 83.5455 229.707 82.2531C229.707 80.9441 229.985 79.7776 230.542 78.7538C231.099 77.7301 231.869 76.9329 232.852 76.3622C233.834 75.7748 234.956 75.4811 236.217 75.4811C237.462 75.4811 238.576 75.7748 239.559 76.3622C240.558 76.9329 241.336 77.7301 241.893 78.7538C242.45 79.7608 242.728 80.8937 242.728 82.1524ZM236.217 77.6713C235.251 77.6713 234.416 77.965 233.711 78.5524C233.024 79.1399 232.565 79.9287 232.336 80.9189H240.099C239.886 79.9455 239.428 79.165 238.723 78.5776C238.036 77.9734 237.2 77.6713 236.217 77.6713Z" fill="#FF9900"/>
<path d="M246.044 88.7483H243.292L247.444 82.0769L243.784 75.7329H246.535L249.139 80.365H249.557L252.26 75.7329H254.938L251.277 81.9259L255.38 88.7483H252.579L249.606 83.5622H249.189L246.044 88.7483Z" fill="#FF9900"/>
<path d="M265.697 81.0448V75.7329H268.105V88.7483H265.697V83.3105H259.579V88.7483H257.172V75.7329H259.579V81.0448H265.697Z" fill="#FF9900"/>
<path d="M277.393 89C276.099 89 274.945 88.7147 273.929 88.1441C272.914 87.5734 272.119 86.7762 271.546 85.7524C270.973 84.7287 270.686 83.5622 270.686 82.2531C270.686 80.9441 270.973 79.7776 271.546 78.7538C272.119 77.7301 272.914 76.9329 273.929 76.3622C274.945 75.7748 276.099 75.4811 277.393 75.4811C278.687 75.4811 279.842 75.7748 280.857 76.3622C281.873 76.9329 282.667 77.7301 283.241 78.7538C283.814 79.7776 284.1 80.9441 284.1 82.2531C284.1 83.5622 283.814 84.7287 283.241 85.7524C282.667 86.7762 281.873 87.5734 280.857 88.1441C279.842 88.7147 278.687 89 277.393 89ZM277.393 86.7343C278.638 86.7343 279.645 86.3231 280.415 85.5007C281.201 84.6783 281.594 83.5958 281.594 82.2531C281.594 80.9105 281.201 79.828 280.415 79.0056C279.645 78.1664 278.638 77.7469 277.393 77.7469C276.148 77.7469 275.141 78.1664 274.371 79.0056C273.602 79.828 273.217 80.9105 273.217 82.2531C273.217 83.579 273.602 84.6615 274.371 85.5007C275.141 86.3231 276.148 86.7343 277.393 86.7343Z" fill="#FF9900"/>
<path d="M288.094 75.7329H297.013V88.7483H294.605V77.9986H290.33L289.962 84.1413C289.88 85.6685 289.495 86.8434 288.807 87.6657C288.119 88.4713 287.185 88.8741 286.006 88.8741C285.695 88.8741 285.351 88.849 284.974 88.7986L284.728 86.4322C284.941 86.449 285.261 86.4573 285.687 86.4573C286.342 86.4573 286.809 86.2895 287.087 85.9538C287.365 85.6182 287.529 85.0308 287.578 84.1916L288.094 75.7329Z" fill="#FF9900"/>
<path d="M306.304 89C305.01 89 303.856 88.7147 302.84 88.1441C301.825 87.5734 301.03 86.7762 300.457 85.7524C299.884 84.7287 299.597 83.5622 299.597 82.2531C299.597 80.9441 299.884 79.7776 300.457 78.7538C301.03 77.7301 301.825 76.9329 302.84 76.3622C303.856 75.7748 305.01 75.4811 306.304 75.4811C307.598 75.4811 308.753 75.7748 309.768 76.3622C310.784 76.9329 311.578 77.7301 312.152 78.7538C312.725 79.7776 313.011 80.9441 313.011 82.2531C313.011 83.5622 312.725 84.7287 312.152 85.7524C311.578 86.7762 310.784 87.5734 309.768 88.1441C308.753 88.7147 307.598 89 306.304 89ZM306.304 86.7343C307.549 86.7343 308.556 86.3231 309.326 85.5007C310.112 84.6783 310.505 83.5958 310.505 82.2531C310.505 80.9105 310.112 79.828 309.326 79.0056C308.556 78.1664 307.549 77.7469 306.304 77.7469C305.06 77.7469 304.052 78.1664 303.282 79.0056C302.513 79.828 302.128 80.9105 302.128 82.2531C302.128 83.579 302.513 84.6615 303.282 85.5007C304.052 86.3231 305.06 86.7343 306.304 86.7343Z" fill="#FF9900"/>
<path d="M318.001 88.7483H315.593V75.7329H323.971V77.9986H318.001V88.7483Z" fill="#FF9900"/>
<path d="M329.473 88.7483H325.91V75.7329H328.244V85.979H328.613L333.748 75.7329H337.31V88.7483H334.976V78.5273H334.607L329.473 88.7483Z" fill="#FF9900"/>
<path d="M344.156 88.7483H340.594V75.7329H342.928V85.979H343.296L348.431 75.7329H351.993V88.7483H349.659V78.5273H349.291L344.156 88.7483Z" fill="#FF9900"/>
<path fill-rule="evenodd" clip-rule="evenodd" d="M160.422 46.937C155.092 58.447 146.904 71.0611 135.745 83.3262C124.724 95.4396 116.147 100.735 108.546 100.914C100.758 101.099 95.5431 95.8355 91.7949 92.0013C91.5772 91.7786 91.364 91.5598 91.1545 91.3448C89.3898 89.5339 87.8956 88.0007 86.3123 86.7919C84.6114 85.4933 83.1274 84.8324 81.6078 84.7231C78.5512 84.5031 73.1662 86.4379 63.6959 97.3425C53.8139 108.886 42.6138 117.053 32.4444 121.389C27.362 123.556 22.407 124.821 17.9197 124.983C13.4475 125.144 9.15449 124.21 5.8064 121.639C-1.25864 116.214 -1.58931 105.979 3.26091 93.6269C8.23867 80.9503 19.2563 64.1645 38.3469 42.9879C57.368 21.8884 70.8632 10.7523 81.0411 5.82755C86.1977 3.33248 90.7115 2.32738 94.7807 2.59682C98.8965 2.86935 102.179 4.42087 104.875 6.38616C107.316 8.16567 109.375 10.3685 111.08 12.194C111.193 12.3142 111.304 12.4327 111.413 12.5494C113.318 14.5842 114.746 16.0322 116.22 16.9287C117.491 17.7022 118.702 18.0059 120.324 17.6582C122.154 17.2658 124.826 15.9682 128.658 12.6816C134.028 8.07571 138.932 4.76617 143.345 2.68805C147.729 0.624248 151.891 -0.346688 155.651 0.11167C159.572 0.589526 162.717 2.58841 164.826 5.7197C166.849 8.72243 167.783 12.5453 167.961 16.6602C168.318 24.8818 165.717 35.5012 160.422 46.937ZM146.753 9.92591C143.186 11.6053 138.886 14.4486 133.866 18.7541C129.561 22.4461 125.689 24.6899 122.001 25.4805C118.105 26.3158 114.824 25.4442 112.061 23.7627C109.5 22.2042 107.352 19.9176 105.573 18.0172L105.392 17.8239C103.554 15.8601 101.971 14.1693 100.163 12.851C98.3893 11.5583 96.5257 10.7299 94.2521 10.5793C91.9318 10.4257 88.8128 10.9544 84.5256 13.0288C75.8159 17.2431 63.1803 27.3888 44.2888 48.3445C25.4669 69.223 15.1751 85.1733 10.7074 96.551C6.11216 108.253 8.20004 113.391 10.6785 115.294C12.1022 116.387 14.3622 117.105 17.6318 116.988C20.8864 116.871 24.862 115.925 29.3067 114.03C38.1885 110.243 48.4246 102.883 57.6274 92.1297L57.6366 92.1189L57.646 92.1081C67.257 81.0387 74.9659 76.2244 82.182 76.7437C85.7992 77.004 88.7464 78.5852 91.1669 80.4332C93.2515 82.0247 95.1801 84.0082 96.8778 85.7542C97.0942 85.9768 97.3069 86.1955 97.5156 86.409C101.564 90.55 104.49 93.0082 108.357 92.9167C112.41 92.8208 119 89.8428 129.828 77.9424C140.475 66.2403 148.195 54.3007 153.162 43.5753C158.163 32.7758 160.249 23.4784 159.969 17.0069C159.828 13.7754 159.113 11.5577 158.191 10.1889C157.355 8.94872 156.261 8.24521 154.683 8.0529C152.946 7.8411 150.35 8.23224 146.753 9.92591Z" fill="#FF9900"/>
<path d="M327.993 20H333.993V26H327.993V20Z" fill="#FF9900"/>
</svg>
