<svg width="512" height="512" viewBox="0 0 512 512" fill="none" xmlns="http://www.w3.org/2000/svg">
<rect width="512" height="512" fill="white"/>
<path fill-rule="evenodd" clip-rule="evenodd" d="M408.197 225.392C397.591 248.294 381.301 273.393 359.097 297.797C337.168 321.9 320.101 332.435 304.978 332.793C289.482 333.16 279.106 322.687 271.648 315.058C271.215 314.615 270.79 314.18 270.374 313.752C266.862 310.149 263.889 307.098 260.739 304.693C257.354 302.109 254.402 300.794 251.378 300.577C245.296 300.139 234.581 303.989 215.738 325.686C196.076 348.654 173.79 364.905 153.556 373.532C143.443 377.844 133.584 380.361 124.655 380.682C115.757 381.003 107.215 379.144 100.553 374.029C86.4956 363.235 85.8377 342.87 95.4884 318.293C105.393 293.07 127.315 259.67 165.3 217.535C203.147 175.552 229.999 153.394 250.25 143.595C260.511 138.631 269.492 136.631 277.589 137.167C285.778 137.709 292.309 140.796 297.674 144.707C302.531 148.248 306.627 152.631 310.021 156.263C310.244 156.502 310.465 156.738 310.682 156.97C314.473 161.019 317.315 163.9 320.246 165.684C322.775 167.223 325.186 167.827 328.413 167.135C332.055 166.354 337.371 163.772 344.996 157.233C355.681 148.069 365.438 141.483 374.22 137.349C382.941 133.242 391.222 131.31 398.705 132.222C406.506 133.173 412.764 137.15 416.96 143.381C420.985 149.355 422.843 156.962 423.198 165.149C423.908 181.508 418.734 202.638 408.197 225.392ZM381 151.75C373.903 155.091 365.347 160.749 355.358 169.316C346.793 176.662 339.088 181.126 331.75 182.699C323.997 184.362 317.469 182.627 311.971 179.282C306.876 176.181 302.603 171.631 299.062 167.849L298.702 167.465C295.045 163.557 291.896 160.193 288.298 157.57C284.769 154.998 281.061 153.35 276.537 153.05C271.92 152.744 265.714 153.796 257.184 157.924C239.854 166.309 214.712 186.496 177.123 228.193C139.672 269.736 119.194 301.472 110.305 324.111C101.162 347.396 105.316 357.617 110.247 361.404C113.08 363.579 117.577 365.009 124.083 364.775C130.558 364.542 138.469 362.661 147.313 358.89C164.985 351.355 185.352 336.709 203.663 315.314L203.682 315.292L203.7 315.271C222.824 293.246 238.162 283.666 252.521 284.7C259.718 285.218 265.582 288.364 270.398 292.041C274.546 295.208 278.383 299.154 281.761 302.628C282.192 303.071 282.615 303.506 283.03 303.931C291.085 312.171 296.908 317.062 304.601 316.88C312.667 316.689 325.78 310.763 347.323 287.085C368.508 263.801 383.87 240.044 393.753 218.703C403.704 197.215 407.854 178.716 407.295 165.839C407.016 159.409 405.593 154.997 403.758 152.273C402.096 149.806 399.919 148.406 396.779 148.023C393.322 147.602 388.158 148.38 381 151.75Z" fill="#FF9900"/>
</svg>
